<?xml version="1.0" encoding="utf-8"?>
<!-- Generator: Adobe Illustrator 19.0.0, SVG Export Plug-In . SVG Version: 6.00 Build 0)  -->
<svg version="1.1" id="Camada_1" xmlns="http://www.w3.org/2000/svg" xmlns:xlink="http://www.w3.org/1999/xlink" x="0px" y="0px"
	 viewBox="0 0 64 64" style="enable-background:new 0 0 64 64;" xml:space="preserve">
<style type="text/css">
	.st0{fill:#FFFFFF;}
	.st1{clip-path:url(#XMLID_47_);fill:#FFFFFF;}
	.st2{font-family:'Impact';}
	.st3{font-size:10.9897px;}
</style>
<path id="XMLID_21_" class="st0" d="M31,3.8l25,14.1v28.2L31,60.2L6,46.1V17.9L31,3.8 M31,0.5L3,16.2v31.5l28,15.8l28-15.8V16.2
	L31,0.5L31,0.5z"/>
<g id="XMLID_9_">
	<g id="XMLID_37_">
		<defs>
			<rect id="XMLID_3_" x="19.1" y="11.1" width="23.8" height="25.5"/>
		</defs>
		<clipPath id="XMLID_47_">
			<use xlink:href="#XMLID_3_"  style="overflow:visible;"/>
		</clipPath>
		<path id="XMLID_40_" class="st1" d="M42.5,34.9l-2.8-15.3c-0.1-0.5-0.5-0.8-1-0.8h-6.5v-1.2h8.5c0.6,0,1-0.5,1-1v-4.3
			c0-0.6-0.5-1-1-1c-0.6,0-1,0.5-1,1v3.3H22.7v-3.3c0-0.6-0.5-1-1-1c-0.6,0-1,0.5-1,1v4.3c0,0.6,0.5,1,1,1h8.5v1.2h-7.3
			c-0.5,0-0.9,0.4-1,0.9l-2.7,15.3c-0.1,0.3,0,0.6,0.2,0.8c0.2,0.2,0.5,0.4,0.8,0.4h21.4c0.3,0,0.6-0.1,0.8-0.4
			C42.5,35.5,42.6,35.2,42.5,34.9L42.5,34.9z M21.4,34l2.3-13.3h14.1L40.3,34H21.4z M21.4,34"/>
	</g>
	<g id="XMLID_2_">
		<g id="XMLID_155_">
			<g id="XMLID_156_">
				<path id="XMLID_160_" class="st0" d="M35.9,22.4c-0.2-0.2-0.6-0.6-1-0.2L32,25.2c-0.4,0.4,0,0.8,0.2,1c0.2,0.2,0.6,0.6,1,0.2
					l2.9-2.9C36.5,23,36.1,22.6,35.9,22.4L35.9,22.4z M35.9,22.4"/>
				<path id="XMLID_157_" class="st0" d="M36.6,28.7c0.2-1,0.2-2.1-0.1-3.1c0,0,0-0.1-0.1-0.1c0,0-0.1-0.1-0.3,0l-0.8,0.8
					c-0.1,0.1-0.1,0.3-0.1,0.4l0,0c0.2,1.4-0.3,2.7-1.2,3.6c-1.7,1.7-4.4,1.7-6.1,0c-1.7-1.7-1.7-4.4,0-6.1c0.9-0.9,2.2-1.3,3.6-1.2
					c0.1,0,0.3,0,0.5-0.2l0.7-0.7c0.2-0.2,0.1-0.3,0-0.3c-0.1-0.1-0.1-0.1-0.2-0.1c-2.1-0.6-4.2,0-5.7,1.4c-2.3,2.3-2.3,5.9,0,8.2
					c2.3,2.3,5.9,2.3,8.2,0C35.9,30.7,36.4,29.7,36.6,28.7L36.6,28.7z M36.6,28.7"/>
			</g>
		</g>
	</g>
</g>
<text id="XMLID_1_" transform="matrix(1 0 0 1 7.3985 46.2562)" class="st0 st2 st3">AGRO PESO</text>
</svg>
