<?xml version="1.0" encoding="utf-8"?>
<!-- Generator: Adobe Illustrator 19.0.0, SVG Export Plug-In . SVG Version: 6.00 Build 0)  -->
<svg version="1.1" id="Camada_1" xmlns="http://www.w3.org/2000/svg" xmlns:xlink="http://www.w3.org/1999/xlink" x="0px" y="0px"
	 viewBox="0 0 226.5 257.7" style="enable-background:new 0 0 226.5 257.7;" xml:space="preserve">
<style type="text/css">
	.st0{fill:#010202;}
	.st1{clip-path:url(#XMLID_132_);fill:#010202;}
	.st2{font-family:'Impact';}
	.st3{font-size:44.2044px;}
</style>
<path id="XMLID_21_" class="st0" d="M114.1,15.1l100.7,56.8v113.6l-100.7,56.8L13.4,185.5V71.9L114.1,15.1 M114.1,1.8L1.6,65.3
	v126.8l112.5,63.4l112.5-63.4V65.3L114.1,1.8L114.1,1.8z"/>
<g id="XMLID_9_">
	<g id="XMLID_37_">
		<defs>
			<rect id="XMLID_3_" x="66.2" y="44.7" width="95.6" height="102.4"/>
		</defs>
		<clipPath id="XMLID_132_">
			<use xlink:href="#XMLID_3_"  style="overflow:visible;"/>
		</clipPath>
		<path id="XMLID_40_" class="st1" d="M160.5,140.2l-11.3-61.7c-0.4-2-2.1-3.4-4.1-3.4h-26.3v-4.7h34.1c2.3,0,4.2-1.9,4.2-4.2V48.8
			c0-2.3-1.9-4.2-4.2-4.2c-2.3,0-4.2,1.9-4.2,4.2v13.2H80.7V48.8c0-2.3-1.9-4.2-4.2-4.2c-2.3,0-4.2,1.9-4.2,4.2v17.4
			c0,2.3,1.9,4.2,4.2,4.2h34.1v4.7H81.3c-2,0-3.8,1.5-4.1,3.4l-10.9,61.7c-0.2,1.2,0.1,2.5,0.9,3.4c0.8,0.9,2,1.5,3.2,1.5h86
			c1.2,0,2.4-0.5,3.2-1.5C160.4,142.7,160.7,141.4,160.5,140.2L160.5,140.2z M75.4,136.8l9.4-53.4h56.9l9.8,53.4H75.4z M75.4,136.8"
			/>
	</g>
	<g id="XMLID_2_">
		<g id="XMLID_87_">
			<g id="XMLID_88_">
				<path id="XMLID_92_" class="st0" d="M133.8,90.1c-0.6-0.6-2.2-2.2-3.8-0.7l-11.8,11.8c-1.6,1.6,0,3.2,0.7,3.8
					c0.6,0.6,2.2,2.2,3.8,0.7L134.5,94C136.1,92.4,134.4,90.7,133.8,90.1L133.8,90.1z M133.8,90.1"/>
				<path id="XMLID_89_" class="st0" d="M136.7,115.3c0.9-4,0.8-8.3-0.4-12.3c0-0.1-0.1-0.3-0.3-0.5c-0.1-0.1-0.6-0.5-1.3,0.2
					l-3.2,3.2c-0.6,0.6-0.5,1.2-0.4,1.5l0,0.1c0.7,5.5-1.1,11-4.7,14.6c-6.8,6.8-17.8,6.8-24.5,0c-6.8-6.8-6.8-17.8,0-24.5
					c3.6-3.6,9-5.4,14.4-4.8c0.3,0,1.3,0.1,2-0.6l2.9-2.9c0.7-0.7,0.3-1.2,0.2-1.4c-0.2-0.2-0.6-0.3-0.8-0.4c-8.3-2.2-17,0-22.8,5.8
					c-9.1,9.1-9.1,23.9,0,33c9.1,9.1,23.9,9.1,33,0C133.6,123.3,135.7,119.5,136.7,115.3L136.7,115.3z M136.7,115.3"/>
			</g>
		</g>
	</g>
</g>
<text id="XMLID_1_" transform="matrix(1 0 0 1 19.123 186.0499)" class="st0 st2 st3">AGRO PESO</text>
</svg>
